<?xml version="1.0" encoding="UTF-8" standalone="no"?>
<svg
   xmlns:dc="http://purl.org/dc/elements/1.1/"
   xmlns:cc="http://creativecommons.org/ns#"
   xmlns:rdf="http://www.w3.org/1999/02/22-rdf-syntax-ns#"
   xmlns:svg="http://www.w3.org/2000/svg"
   xmlns="http://www.w3.org/2000/svg"
   xmlns:sodipodi="http://sodipodi.sourceforge.net/DTD/sodipodi-0.dtd"
   xmlns:inkscape="http://www.inkscape.org/namespaces/inkscape"
   id="Layer_1"
   data-name="Layer 1"
   viewBox="0 0 1106.0902 849.11005"
   version="1.1"
   sodipodi:docname="Logo_01-03.svg"
   width="1106.0902"
   height="849.11005"
   inkscape:version="1.0.1 (3bc2e813f5, 2020-09-07)">
  <metadata
     id="metadata19">
    <rdf:RDF>
      <cc:Work
         rdf:about="">
        <dc:format>image/svg+xml</dc:format>
        <dc:type
           rdf:resource="http://purl.org/dc/dcmitype/StillImage" />
        <dc:title>Logo_01</dc:title>
      </cc:Work>
    </rdf:RDF>
  </metadata>
  <defs
     id="defs17" />
  <sodipodi:namedview
     pagecolor="#ffffff"
     bordercolor="#666666"
     borderopacity="1"
     objecttolerance="10"
     gridtolerance="10"
     guidetolerance="10"
     inkscape:pageopacity="0"
     inkscape:pageshadow="2"
     inkscape:window-width="1920"
     inkscape:window-height="1016"
     id="namedview15"
     showgrid="false"
     lock-margins="true"
     inkscape:pagecheckerboard="true"
     inkscape:zoom="0.27547099"
     inkscape:cx="890.64296"
     inkscape:cy="-78.503866"
     inkscape:window-x="0"
     inkscape:window-y="27"
     inkscape:window-maximized="1"
     inkscape:current-layer="Layer_1" />
  <title
     id="title2">Logo_01</title>
  <rect
     x="145.99002"
     y="68.810059"
     width="742.53998"
     height="45.209999"
     id="rect4" />
  <rect
     x="224.04001"
     y="0"
     width="586.44"
     height="45.209999"
     id="rect6" />
  <path
     d="m 1020.52,849.06003 -472.48,-1.72 a 113.58,113.58 0 0 1 -64.63,-207 h 0.06 a 7.43,7.43 0 0 0 1.62,-0.17 7.67,7.67 0 0 0 5.41,-4.39 112.85,112.85 0 0 1 57.52,-15.7 7.72,7.72 0 1 0 0,-15.43 128.28,128.28 0 0 0 -58.52,14.08 c -0.08,-1.48 -0.23,-3 -0.23,-4.43 a 79.75,79.75 0 0 1 144.22,-47 7.73,7.73 0 0 0 12.48,-9.11 95.45,95.45 0 0 0 -16.81,-17.65 130.54,130.54 0 0 1 239.59,71.79 7.72,7.72 0 0 0 15.43,0 145.05,145.05 0 0 0 -12.18,-58.3 105.07,105.07 0 0 1 130.53,101.87 103.87,103.87 0 0 1 -11,46.94 7.72,7.72 0 0 0 3.44,10.36 7.64,7.64 0 0 0 3.45,0.82 7.73,7.73 0 0 0 6.91,-4.26 119.12,119.12 0 0 0 11,-33.43 c 1.41,-0.06 2.82,-0.22 4.23,-0.22 a 86.46,86.46 0 0 1 0,172.91 z"
     id="path8" />
  <path
     d="M 1.0487387e-6,800.79003 A 48.32,48.32 0 0 1 48.270001,752.53003 c 0.78,0 1.57,0.08 2.35,0.12 a 66.36,66.36 0 0 0 6.13,18.66 4.31,4.31 0 0 0 7.7,-3.86 58,58 0 0 1 -6.17,-26.2 58.69,58.69 0 0 1 72.869999,-56.88 81.09,81.09 0 0 0 -6.8,32.55 4.31,4.31 0 1 0 8.62,0 72.88,72.88 0 0 1 133.75,-40.08 52.89,52.89 0 0 0 -9.38,9.86 4.3245347,4.3245347 0 1 0 7,5.08 44.53,44.53 0 0 1 80.52,26.22 c 0,0.82 -0.09,1.65 -0.13,2.47 a 71.66,71.66 0 0 0 -32.67,-7.86 4.31,4.31 0 1 0 0,8.62 63,63 0 0 1 32.11,8.76 4.29,4.29 0 0 0 3,2.45 4,4 0 0 0 0.91,0.1 v 0 a 63.41,63.41 0 0 1 -36.08,115.57 l -263.769999,1 A 48.31,48.31 0 0 1 1.0487387e-6,800.79003 Z"
     id="path10" />
  <path
     d="M 898.38,137.62003 H 136.13 a 84.91,84.91 0 1 0 84.91,84.91 v -6.6 h 61.13 v 439.13 a 65.22,65.22 0 0 1 66.31,18.6 v -457.73 h 66.3 v 498.72 a 134.9,134.9 0 0 1 54.05,-89.72 l -0.27,-5.05 c 0,-0.36 -0.05,-0.72 -0.08,-1.09 -0.08,-1.22 -0.19,-2.75 -0.19,-4.49 a 100.2,100.2 0 0 1 12.8,-49.1 v -349.27 h 69.32 v 299.35 a 100.45,100.45 0 0 1 64.32,9.26 c 0.65,-0.91 1.32,-1.81 2,-2.71 v -305.9 h 69.32 v 254.24 a 151.22,151.22 0 0 1 52.16,-9.37 c 4.77,0 9.49,0.24 14.15,0.67 v -245.54 h 61.11 v 6.6 a 84.91,84.91 0 1 0 84.9,-84.9 z m 1.4,141.56 a 45.52,45.52 0 0 1 -45.47,-45.47 38.22,38.22 0 0 1 38.16,-38.18 32.37,32.37 0 0 1 32.34,32.34 27.71,27.71 0 0 1 -27.66,27.66 24,24 0 0 1 -23.93,-23.94 21,21 0 0 1 1,-6.58 20.2,20.2 0 0 0 -2,8.68 27.5,27.5 0 0 0 27.47,27.47 36.63,36.63 0 0 0 36.59,-36.59 48,48 0 0 0 -48,-48 H 146.14 a 48,48 0 0 0 -47.999999,48 36.63,36.63 0 0 0 36.589999,36.59 27.5,27.5 0 0 0 27.47,-27.47 20.06,20.06 0 0 0 -2,-8.68 20.76,20.76 0 0 1 1.06,6.58 24,24 0 0 1 -23.9,23.94 27.7,27.7 0 0 1 -27.67,-27.67 32.37,32.37 0 0 1 32.34,-32.33 38.22,38.22 0 0 1 38.18,38.17 45.52,45.52 0 0 1 -45.47,45.47 54.65,54.65 0 0 1 -54.589999,-54.59 66.06,66.06 0 0 1 65.999999,-66 h 742.24 a 66.06,66.06 0 0 1 66,66 54.65,54.65 0 0 1 -54.61,54.6 z"
     id="path12" />
</svg>
